<svg xmlns="http://www.w3.org/2000/svg" width="600" height="400" viewBox="0 0 800 800">
    <defs>
        <style>
            .a {
                fill: #e6e6e6;
            }

            .b {
                fill: #3f3d56;
            }

            .c {
                fill: #fff;
            }

            .d {
                fill: #ffb6b6;
            }

            .e {
                fill: #6c63ff;
            }

            .f {
                fill: #2f2e41;
            }
        </style>
    </defs>
    <path class="a"
        d="M1023.775,482.383H38.225A38.269,38.269,0,0,1,0,444.158V325.54H1062V444.158A38.268,38.268,0,0,1,1023.775,482.383Z"
        transform="translate(0 253.646)" />
    <rect class="a" width="251.327" height="179.519" transform="translate(407.226 716.188)" />
    <rect class="a" width="281.562" height="22.676" transform="translate(392.108 873.031)" />
    <path class="b"
        d="M1061.055,629.263H0V26.232A26.262,26.262,0,0,1,26.232,0H1034.823a26.262,26.262,0,0,1,26.232,26.232V629.263Z" />
    <rect class="c" width="1010.978" height="568.793" transform="translate(24.566 27.4)" />
    <g transform="translate(15.141 281.743)">
        <path class="d"
            d="M141.89,208.444c7.738-6.394,17.309-7.584,21.377-2.659s1.093,14.1-6.649,20.494a25.12,25.12,0,0,1-10.6,5.328l-33.128,26.676L100.7,242.471l33.952-24.619a25.122,25.122,0,0,1,7.235-9.408Z"
            transform="translate(63.322 -123.771)" />
        <path class="e"
            d="M16.233,260.042c-.017-1.18-.006-11.47,7.613-17.975,8.752-7.472,21.1-4.447,25.432-3.387,10.005,2.45,10.826,6.742,20.222,11.152,17.579,8.251-4.447,4.028,6.013,1.382,3.621-.916,55.709-4.528,68.675-12.508,25.217-15.521,42.4-24.932,42.4-24.932l11.232,22.464s-16.242,22.584-39.1,39.314c-23.448,17.162-35.172,25.742-52.989,29.058-1.534.286-39.27,6.729-69.663-15.978-6.933-5.179-19.635-14.669-19.833-28.59Z"
            transform="translate(-2.494 -115.18)" />
        <circle class="d" cx="39.128" cy="39.128" r="39.128" transform="translate(9.453 9.473)" />
        <g transform="translate(74.277 181.992)">
            <path class="d" d="M234.812,351.494l-40.3-41.249-20.8,21.7,30.023,39.55,29.779,3.406Z"
                transform="translate(45.932 -222.006)" />
            <path class="f"
                d="M100.906,312.787c2.357.2,9.847,1.7,17.006-2.242a23.259,23.259,0,0,0,8.238-7.956c10.5-15.769,50.8-40.359,86.967-41.872,8.19-.343,13.582.606,18.482,3.161,6.948,3.622,9.722,8.81,18.539,20.964,4.823,6.648,10.16,12.911,15.041,19.517,28.577,38.672,39.41,41.708,38.3,54.106-1.229,13.756-16.064,26.806-25.924,25.3-4.038-.617-5.6-3.425-11-9.109-15.819-16.667-22.363-13.587-33.626-26.353-13.149-14.9-11.428-27.262-18.288-27.739-6.362-.443-9.065,10.1-22.647,24.1-6.215,6.408-10.64,9.348-24.123,18.7-52.5,36.424-53.342,38.984-63.938,41.889-4.636,1.271-37.539,10.292-49.261-4.064-18.342-22.465,24.99-90.17,46.227-88.406Z"
                transform="translate(-50.259 -260.649)" />
            <path class="f"
                d="M217.923,346.268c2.964-1.331,6.429-2.887,7.544-6.465a8.6,8.6,0,0,0-1.239-7.47c-1.8-2.38-4.462-2.694-4.355-3.115.164-.641,6.461-.391,13.374,2.053a53.511,53.511,0,0,1,14.732,8.489c6.023,4.7,5.212,5.645,8.989,8.356,11.594,8.323,22.467,1.763,28.741,9.568a12.362,12.362,0,0,1,2.435,10.747c-2.046,6.944-12,9.334-17.435,10.568-13.1,2.971-23.011.546-33.362-1.2-35.2-5.932-54.983-.529-57.63-8.685-.5-1.544.313-1.412,3.027-12.739,2.679-11.18,2.591-14.25,4.873-15.145,3.435-1.348,5.741,4.782,14.392,6.88a24.518,24.518,0,0,0,15.914-1.844Z"
                transform="translate(50.501 -207.458)" />
        </g>
        <g transform="translate(48.461 250.049)">
            <path class="d" d="M185.12,434.132l-10.181-56.759-29.4,6.273,2.633,49.585L170.9,452.771Z"
                transform="translate(49.798 -237.76)" />
            <path class="f"
                d="M123.708,302.062c1.84,1.486,7.2,6.933,15.331,7.694a23.259,23.259,0,0,0,11.284-1.957c17.543-7.152,64.7-4.87,95.474,14.188,6.97,4.316,10.9,8.128,13.518,12.994,3.716,6.9,3.1,12.749,3.569,27.757.258,8.209,1.157,16.388,1.486,24.6,1.93,48.046,9.189,56.642,1.311,66.279-8.741,10.692-28.345,13.161-35.658,6.377-2.995-2.778-2.712-5.98-3.984-13.712-3.73-22.674-10.875-23.8-13.025-40.688-2.511-19.716,5.853-28.975.444-33.222-5.015-3.939-13.172,3.267-32.275,7.228-8.741,1.813-14.054,1.76-30.462,1.929-63.9.656-66.029,2.3-76.428-1.242-4.55-1.552-36.841-12.564-38.479-31.024-2.562-28.888,71.312-60.579,87.894-47.193Z"
                transform="translate(-35.749 -298.901)" />
            <path class="f"
                d="M178.667,419.03c3.2.563,6.941,1.221,9.873-1.113a8.6,8.6,0,0,0,3.169-6.877c-.152-2.98-2.18-4.735-1.854-5.023.5-.438,5.566,3.305,9.914,9.209a53.508,53.508,0,0,1,7.423,15.3c2.343,7.273,1.143,7.6,2.746,11.962,4.92,13.4,17.6,14.075,18.409,24.056a12.363,12.363,0,0,1-4.02,10.26c-5.593,4.6-15.168.987-20.361-1.046-12.506-4.9-19.347-12.47-26.932-19.726-25.8-24.677-45.2-31.313-42.809-39.548.452-1.559,1.052-.993,9.659-8.841,8.495-7.746,10.146-10.336,12.537-9.8,3.6.813,2.065,7.181,8.045,13.775a24.517,24.517,0,0,0,14.2,7.41Z"
                transform="translate(40.823 -221.863)" />
        </g>
        <path class="f"
            d="M60.783,214.439c1.523-5.449-.39-7.435,1.56-9.881,0,0,.785-.984,7.8-3.64h0c-2.07-12.01-.52-14.041-.52-14.041,1.786-2.341,5.365-2.906,7.8-2.6,5.152.648,6.064,5.3,9.361,5.2,4.554-.144,10.016-9.26,8.321-17.161-1.383-6.445-7.346-11.231-8.841-10.4s-6.817-2.808-8.841-2.08c-1.382.5-7.886-.164-9.361.52-1.611.747-6.223,5.4-6.664,4.813-3.064-4.073-3-5.5-4.777-6.373-3.15-1.556-6.575,1.32-12.481,4.16-12.151,5.845-15.709,2.358-21.321,7.28-2.835,2.486-4.356,7.239-7.28,16.641-4.091,13.149-6.136,19.724-4.16,26,2.015,6.4,4.982,5.009,9.361,14.041,4.875,10.054,3.195,15.9,7.8,18.2,3.56,1.78,9.281.647,11.441-2.6,3.7-5.559-5.86-13.08-2.6-21.841,2-5.378,8.175-9.456,11.961-8.321,4.281,1.284,4.6,8.959,7.28,8.841,2.3-.1,3.895-5.811,4.16-6.76Z"
            transform="translate(-6.867 -158.358)" />
        <path class="e"
            d="M32.394,212.474c8.007-8.978,40.622.314,43.683,14.561,1.259,5.86-3.389,8.334-2.08,15.081,1.915,9.868,12.755,9.2,20.8,19.241,11.424,14.262-.345,28.2,12.481,52,2.741,5.086,5.051,9.372,9.881,13.521,11.083,9.52,21.4,6.255,27.042,15.081,4.22,6.6,2.486,14.735,2.08,16.641-1.666,7.814-6.18,9.718-9.361,16.121-5.292,10.653.7,18.474,1.04,31.2.426,15.925-8.037,38-24.962,45.243-19.014,8.137-41.946-5.34-53.043-18.721-6.622-7.985-8.544-15.35-11.441-24.442-12.947-40.631-20.261-36.956-30.162-69.165-11.318-36.82-13.544-79.956,0-93.606a38.983,38.983,0,0,0,9.881-13.521c4.232-10.132.576-15.222,4.16-19.241Z"
            transform="translate(-8.12 -118.95)" />
        <g transform="translate(0 127.19)">
            <path class="d"
                d="M110.172,346.073c6.208,7.888,7.17,17.484,2.15,21.434s-14.121.757-20.33-7.134a25.121,25.121,0,0,1-5.075-10.724L61.036,315.9l13.373-10.2,26.53,32.92A25.123,25.123,0,0,1,110.172,346.073Z"
                transform="translate(32.415 -170.748)" />
            <path class="e"
                d="M56.311,230.4c1.151-.257,11.228-2.346,19.15,3.785,9.1,7.043,8.659,19.749,8.5,24.206-.357,10.295-4.391,11.974-6.791,22.072-4.49,18.893,4.061,36.45,8.785,46.15a100.743,100.743,0,0,0,17.347,24.7c20.339,21.52,38.487,32.843,38.487,32.843l-19.5,17.33s-31.055-9.465-52.1-28.43C48.615,353.6,15.421,284.768,8.54,268c-.593-1.444,7.8,22.03,23.829-12.357C36.025,247.8,42.723,233.43,56.311,230.4Z"
                transform="translate(-8.51 -229.847)" />
        </g>
    </g>
    <g transform="translate(510.671 263.442)">
        <path class="b"
            d="M326.032,277.967l-23.278-11.027c9.548,13.324,17.774,34.134,22.179,50.693,7.457-15.425,19.479-34.3,31.378-45.572l-24.6,6.329c15.16-74.3,72.179-127.636,137.475-127.636l.924-2.684C401.9,148.072,341.51,200.67,326.032,277.967Z"
            transform="translate(-274.778 -148.072)" />
        <path class="e" d="M445.423,294.62H298.343a11.314,11.314,0,0,1,0-22.628H445.422a11.314,11.314,0,1,1,0,22.628Z"
            transform="translate(-287.03 -51.518)" />
        <path class="a" d="M555.423,294.62H408.343a11.314,11.314,0,0,1,0-22.628H555.422a11.314,11.314,0,0,1,0,22.628Z"
            transform="translate(-201.322 -51.518)" />
    </g>
    <g transform="translate(551.479 185.69)">
        <path class="b" d="M502.592,117.442H359.624a6.536,6.536,0,1,1,0-13.073H502.592a6.536,6.536,0,0,1,0,13.073Z"
            transform="translate(-276.369 -104.37)" />
        <path class="b" d="M612.907,156.641H316.5a6.536,6.536,0,1,1,0-13.073h296.4a6.536,6.536,0,0,1,0,13.073Z"
            transform="translate(-309.966 -73.828)" />
    </g>
    <path class="b"
        d="M36.121,505.312a2.111,2.111,0,0,0,2.117,2.117H967.474a2.117,2.117,0,0,0,0-4.234H38.238A2.111,2.111,0,0,0,36.121,505.312Z"
        transform="translate(28.144 392.067)" />
    <path class="b"
        d="M207.549,286.179c-.252,0-.5-.009-.756-.025-14.89-.956-65.837-8.165-96.253-60.754a12.014,12.014,0,0,1,1.228-13.7L168.1,144.59a12.272,12.272,0,0,1,9.466-4.282c2.491.059,8.388.688,9.534,5.235,6.767,26.859,35.34,58.44,69.7,62.626,3.483.423,6.279,3.531,7.479,8.312a11.85,11.85,0,0,1-2.375,10.526L216.778,281.8a11.93,11.93,0,0,1-9.23,4.379Zm-30.2-143.172a9.449,9.449,0,0,0-7.18,3.318l-56.328,67.113a9.3,9.3,0,0,0-.96,10.608c29.745,51.43,79.537,58.477,94.089,59.412a9.2,9.2,0,0,0,7.727-3.375l45.124-54.794a9.176,9.176,0,0,0,1.84-8.151c-.708-2.821-2.443-5.955-5.187-6.29-35.5-4.323-65.01-36.922-71.995-64.647-.566-2.245-3.972-3.122-6.97-3.193h-.16Z"
        transform="translate(84.889 109.321)" />
    <path class="a"
        d="M131.326,209.819l40.61-41.407c2.776-2.83-1.573-7.187-4.353-4.353l-40.61,41.407c-2.776,2.83,1.573,7.187,4.353,4.353Z"
        transform="translate(98.238 127.111)" />
    <path class="a"
        d="M145.143,213.009a160.443,160.443,0,0,0,28.923-34.44c2.105-3.369-3.218-6.462-5.315-3.107a154.563,154.563,0,0,1-27.96,33.195c-2.956,2.65,1.409,6.991,4.353,4.353h0Z"
        transform="translate(108.931 135.586)" />
    <path class="a"
        d="M157.49,222.263a169.94,169.94,0,0,0,25.729-37.528c1.774-3.53-3.534-6.651-5.315-3.107a163.928,163.928,0,0,1-24.767,36.282c-2.649,2.934,1.691,7.3,4.353,4.353Z"
        transform="translate(118.675 140.301)" />
    <g transform="translate(217.823 207.858)">
        <ellipse class="e" cx="40.943" cy="40.08" rx="40.943" ry="40.08" />
        <path class="c"
            d="M173,171.1l-18.891-46.445a2.328,2.328,0,0,0-4.443,0,205.294,205.294,0,0,0-12.242,50.437c-.333,2.941,4.277,2.918,4.607,0a196.9,196.9,0,0,1,3.358-20.1,48.442,48.442,0,0,0,15.427-1.7l7.74,19.029C169.664,175.033,174.123,173.848,173,171.1ZM146.44,150.435q2.328-9.528,5.571-18.805l7.061,17.361A44.5,44.5,0,0,1,146.44,150.435Z"
            transform="translate(-110.758 -112.005)" />
    </g>
</svg>